<?xml version="1.0" encoding="UTF-8"?><svg xmlns="http://www.w3.org/2000/svg" viewBox="0 0 481.2 311.34"><defs><style>.cls-1{fill:#f1f2f2;font-family:Verdana, Verdana;font-size:145.13px;}.cls-2{letter-spacing:0em;}.cls-3{fill:#be1e2d;}.cls-4{letter-spacing:-.03em;}.cls-5{fill:#3c2415;}.cls-6{fill:#006838;}</style></defs><g id="Layer_4"><path class="cls-5" d="M305.08,151.28c.09,.96-.34,1.74-.72,2.48-1.24,2.19-2.95,4.07-4.77,5.79-4.89,4.65-11.14,7.61-17.59,9.38-4.71,1.45-9.69,2.72-14.67,3.18-17.95,2.32-36.06,3.09-54.14,3.22-9.83-.03-19.95,0-29.66-.85-6.45-.46-12.94-.91-19.37-.99-2.66,0-6.3-.07-8.56,.56-.21,.06-.44,.18-.27,.08,.07-.07,.31-.15,.72-.85,.45-.65,.44-2.18,0-2.79-.32-.55-.46-.59-.51-.65-.06-.04-.01,0,.05,.03,4.32,1.87,9.42,2.42,14.18,3.18,6.38,.86,12.83,1.43,19.27,1.88,22.69,1.43,45.52,1.11,68.19-.71,9.75-.8,19.49-1.47,29.06-3.69,6.41-1.32,13.04-2.61,19.6-1.77,.11,.01,.19,.11,.17,.22-.01,.11-.11,.18-.22,.17-9.87-.9-19.31,2.9-28.93,4.45-35.51,5.69-71.88,7.42-107.66,3.27-2.7-.46-18.08-2.15-16.71-5.48,2.6-3.72,25.89-1.06,31.26-.88,29.33,1.81,58.91,1.5,88.15-1.3,6.36-1.2,12.89-2.52,18.83-5.12,4.36-2.15,8.43-5.03,11.65-8.7,.95-1.17,2.17-2.56,2.23-4.08-.02-.12,.07-.23,.19-.24,.11,0,.2,.07,.21,.18h0Z"/><path class="cls-3" d="M385.41,147.09c4.9-1.61,6.67-11.47,7.2-16.04,.57-6.01-.33-12.33-3.74-17.36-5.99-9.1-14.56-7.44-21.57-.47-6.49,6.23-10.6,14.79-12.42,23.51-1.05,5.61-2.14,11.9-.94,17.43,1.12,5.98,6.12,8.1,11.71,7.5,2.78-.4,5.5-1.93,7.87-3.54,2.54-1.7,4.9-3.74,7.26-5.84,.21-.21,.55,.11,.37,.34-5.77,8.38-14.58,16.41-25.38,11.55-9.99-5.66-7.94-19.24-5.71-28.58,3.44-12.31,10.99-25.27,23.27-30.35,11.1-4.2,19.6,6.26,20.9,16.35,.84,6.39-.18,12.93-2.61,18.85-1.25,2.83-2.78,6.3-6.1,7.13-.32,.07-.41-.42-.11-.49h0Z"/><path class="cls-3" d="M383.33,131.49c-.59-2.73-1.66-5.52-3.99-7.08-2.09-1.36-5.16-1.86-7.34-.58-2.12,1.32-3.63,3.71-4.63,6.22-1.64,4.17-3.9,15.36-.45,18.59,.53,.38,.94,.33,1.49,.15,.58-.17,.94-.39,1.45-.82,2.91-3.2,4.23-7.97,4.49-12.28,.24-2.83,4.38-2.64,4.37,.19-.15,4.11,1.92,10.73,6.69,11.21,.27,0,.35,.4,.1,.49-2.91,1.13-5.93-1.11-7.77-3.22-1.97-2.3-3.01-5.23-3.41-8.21l4.4-.17c.13,1.59,.06,3.21-.15,4.82-.83,4.93-3.03,10.87-8.37,12.46-2.07,.7-4.69,.23-6.23-1.33-3.81-3.99-2.68-9.81-1.98-14.38,1.22-5.91,3.26-12.49,9.03-15.63,3.04-1.39,6.6-.55,9.13,1.4,2.45,1.94,3.36,5.13,3.66,8.04,.08,.33-.4,.45-.48,.13h0Z"/><path class="cls-3" d="M391.66,137.84c3.33-3.49,6.66-7.13,8.77-11.43,2.37-4.62,3.27-9.9,3.8-15.12,.35-10.01-5.13-18.29-15.1-20.63-10.18-2.89-21.03,0-29.71,5.76-3.92,2.49-7.66,5.46-11.47,8.95-.13,.17-.41,.24-.56,.05-.1-.11-.12-.27-.05-.39,2.35-4.39,5.4-8.44,9.05-11.86,7.2-6.99,17.17-11.44,27.34-10.52,17.25,1.64,27.99,13.7,24.16,31.2-2.05,10.85-6.97,18.04-15.78,24.56-.37,.25-.78-.24-.43-.55h0Z"/><path class="cls-3" d="M362.02,163.26c2.99,1.58,6.45,1.83,9.77,2.04,6.47,.24,13.23,.19,19.35-1.97,8.25-2.84,15.93-10.94,17.81-19.46,.39-2.08,.71-4.41,.71-6.53-.04-3.36-1.08-6.19-2.33-9.44-.19-.29,.1-.68,.43-.42,1.24,1.22,2.44,2.52,3.44,3.98,1,1.46,1.77,3.1,2.26,4.81,3.09,11.01-2.45,21.29-11.6,27.39-5.82,4.09-13.14,5.36-20.11,5.08-3.49-.09-6.97-.48-10.4-1.15-3.41-.76-6.96-1.58-9.73-3.88-.27-.28,.08-.68,.4-.45h0Z"/><path class="cls-3" d="M344.22,100.26c-15.02,9.81-28.44,23.62-34.68,40.66-3.95,12.22-4.62,23.11,7.3,31.08,8.63,5.81,18.92,8.71,29.48,8.98,.15-.02,.29,.11,.28,.26,0,.12-.1,.22-.21,.24-14.63,2.24-36.2-3.36-42.58-18.05-2.16-5.14-1.99-10.87-1.05-16.26,2.96-16.25,14-29.95,26.92-39.71,4.48-3.1,9.23-5.83,14.37-7.67,.13-.04,.27,.03,.31,.15,.04,.14-.03,.26-.15,.32h0Z"/><path class="cls-3" d="M390.51,171.74c-4.01,9.69-14.51,16.45-25.03,16.96-11.06,.58-23.18-2.99-30.17-12.15-8.86-11.52-11.59-26.87-8.2-40.84,2.89-13.48,12.93-25.25,25.89-30,6.06-2.32,13.14-2.88,19.18-.38,.49,.18,.28,.89-.22,.77-10.59-2.99-21.71,2.43-29.12,9.87-8.96,10.16-11.44,26.08-8.62,39.06,2.15,8.83,5.98,17.92,13.99,22.77,7.65,4.33,18.03,6.14,26.54,3.53,5.68-1.89,11.37-5.2,15.07-9.97,.25-.41,.9-.05,.7,.39h0Z"/><path class="cls-6" d="M289.65,163.33c-3.93-9.85-14.04-16.03-24.34-17.01-3.43-.4-6.87-.2-10.48-.29-7.17-.52-14.29-1.22-21.05-3.93-5.04-2-9.1-5.55-13.71-8-1.46-.72-3.02-1.24-4.6-1.53-.78-.14-1.3-.89-1.15-1.67,.07-.38,.29-.7,.58-.91,3.14-2.25,6.57-4.13,10.23-5.48,7.32-2.93,15.39-2.38,22.96-.97,3.76,.72,7.47,1.75,11.06,3.16,7.16,2.82,13.43,7.35,19.17,12.5,5.59,5.18,10.1,11.85,12.49,19.04,.21,.52-.05,1.12-.58,1.31-.46,.17-.97-.03-1.2-.44-.77-1.35-1.84-2.68-2.88-3.99l-3.19-3.94c-6.43-7.74-15.39-13.28-24.91-16.44,9.86,2.53,19.29,7.8,26.15,15.39l3.35,3.84c1.11,1.3,2.23,2.58,3.21,4.14l-1.78,.87c-3.86-10.58-11.84-18.61-21.22-24.55-3-2.09-6.24-3.72-9.65-5.04-6.81-2.6-14.19-3.96-21.46-4-3.68-.08-7.1,.63-10.5,1.88-3.39,1.23-6.6,2.97-9.57,5.07l-.57-2.59c7.19,1.29,12.28,7.41,18.79,10.01,3.09,1.36,6.44,2.21,9.83,2.86,3.39,.6,6.91,1.13,10.32,1.4,3.42,.21,7.03,.14,10.58,.68,10.5,1.41,20.81,8.3,24.12,18.64h0Z"/></g><g id="Layer_3"><text class="cls-1" transform="translate(37.17 267.33) scale(.94 1)"><tspan class="cls-4" x="0" y="0">R</tspan><tspan class="cls-2" x="96.21" y="0">osas</tspan></text></g></svg>